<svg class="h-6 w-6" fill="currentColor" viewBox="0 0 24 24"><path d="M22.46,6C21.69,6.35 20.86,6.58 20,6.69C20.88,6.16 21.56,5.32 21.88,4.31C21.05,4.81 20.13,5.16 19.16,5.36C18.37,4.5 17.26,4 16,4C13.65,4 11.73,5.92 11.73,8.29C11.73,8.63 11.77,8.96 11.84,9.27C8.28,9.09 5.11,7.38 3,4.79C2.63,5.42 2.42,6.16 2.42,6.94C2.42,8.43 3.17,9.75 4.33,10.5C3.62,10.5 2.96,10.3 2.38,10C2.38,10 2.38,10 2.38,10.03C2.38,12.11 3.86,13.85 5.82,14.24C5.46,14.34 5.08,14.39 4.69,14.39C4.42,14.39 4.15,14.36 3.89,14.31C4.43,16.02 6.08,17.26 8.12,17.29C6.67,18.45 4.82,19.12 2.83,19.12C2.47,19.12 2.12,19.1 1.77,19.05C3.82,20.41 6.28,21.25 8.96,21.25C16.8,21.25 20.49,14.67 20.49,8.88C20.49,8.69 20.49,8.5 20.48,8.31C21.29,7.72 21.96,7.01 22.46,6Z" /></svg>